<?xml version="1.0"?><svg xmlns="http://www.w3.org/2000/svg" xmlns:xlink="http://www.w3.org/1999/xlink" xmlns:svgjs="http://svgjs.com/svgjs" version="1.1" width="512" height="512" x="0" y="0" viewBox="0 0 513.22 513" style="enable-background:new 0 0 512 512" xml:space="preserve" class=""><g transform="matrix(1,0,0,1,0,2.842170943040401e-14)"><path xmlns="http://www.w3.org/2000/svg" d="m240.015625 495.46875c-.015625-8.207031 6.175781-15.277344 14.367187-15.886719 100.882813-7.472656 180.6875-92 180.6875-194.734375l32-.882812v.882812c0 119.261719-92.429687 217.421875-209.40625 226.574219-9.457031.734375-17.632812-6.480469-17.648437-15.953125zm0 0" fill="#74ddce" data-original="#fbc02d" style="" class=""/><path xmlns="http://www.w3.org/2000/svg" d="m113.871094 456.878906c-70.222656-40.511718-113.871094-116-113.871094-196.992187 0-34.207031 7.710938-67.953125 22.414062-98.527344 3.875-8.050781 13.601563-11.3125 21.347657-6.867187l1.535156.882812c7.039063 4.046875 9.328125 12.800781 5.824219 20.109375-12.546875 26.210937-19.121094 55.105469-19.121094 84.402344 0 69.597656 37.503906 134.449219 97.855469 169.261719zm0 0" fill="#4dd0e1" data-original="#4dd0e1" style="" class=""/><path xmlns="http://www.w3.org/2000/svg" d="m437.441406 137.886719c-7.089844 4.144531-16.304687 2.320312-20.960937-4.449219-36.242188-52.65625-96.703125-84.832031-161.054688-84.832031-34.515625 0-68.433593 9.121093-98.097656 26.382812l-16.097656-27.644531c34.546875-20.113281 74.015625-30.738281 114.195312-30.738281 74.621094 0 144.734375 37.152343 186.957031 98.015625 5.394532 7.792968 3.234376 18.496094-4.941406 23.265625zm0 0" fill="#aeeff7" data-original="#e64a19" style="" class=""/><path xmlns="http://www.w3.org/2000/svg" d="m204.160156 96.109375h-80v-80c0-8.832031 7.167969-16 16-16 8.832032 0 16 7.167969 16 16v48h48c8.832032 0 16 7.167969 16 16s-7.167968 16-16 16zm0 0" fill="#94e4ef" data-original="#ff7043" style="" class=""/><path xmlns="http://www.w3.org/2000/svg" d="m136 464.109375h-80c-8.832031 0-16-7.167969-16-16s7.167969-16 16-16h48v-48c0-8.832031 7.167969-16 16-16s16 7.167969 16 16zm0 0" fill="#80deea" data-original="#80deea" style="" class=""/><path xmlns="http://www.w3.org/2000/svg" d="m485.902344 321.34375-33.949219-33.9375-33.953125 33.9375c-6.238281 6.238281-16.382812 6.238281-22.625 0-6.253906-6.257812-6.238281-16.386719 0-22.625l56.578125-56.5625 56.574219 56.5625c6.257812 6.238281 6.257812 16.382812 0 22.625-6.238282 6.253906-16.367188 6.253906-22.625 0zm0 0" fill="#5fd1dd" data-original="#fdd835" style="" class=""/></g></svg>
