<?xml version="1.0"?><svg xmlns="http://www.w3.org/2000/svg" xmlns:xlink="http://www.w3.org/1999/xlink" xmlns:svgjs="http://svgjs.com/svgjs" version="1.1" width="512" height="512" x="0" y="0" viewBox="0 0 36 36" style="enable-background:new 0 0 512 512" xml:space="preserve" class=""><g><path xmlns="http://www.w3.org/2000/svg" d="m8.377 4.167c6.917 0 11.667-3.583 15-3.583s10.333 1.916 10.333 17.249-9.417 17.583-13.083 17.583c-17.167.001-24.5-31.249-12.25-31.249z" fill="#efefef" data-original="#efefef" style="" class=""/><path xmlns="http://www.w3.org/2000/svg" d="m6.5 12c-.827 0-1.5-.673-1.5-1.5s.673-1.5 1.5-1.5 1.5.673 1.5 1.5-.673 1.5-1.5 1.5zm0-2c-.276 0-.5.224-.5.5s.224.5.5.5.5-.224.5-.5-.224-.5-.5-.5z" fill="#a4afc1" data-original="#a4afc1" style="" class=""/><path xmlns="http://www.w3.org/2000/svg" d="m23.25 15.75-5.25 5.5-5.25-5.5h3.5v-6.5c0-.276.224-.5.5-.5h2.5c.276 0 .5.224.5.5v6.5z" fill="#2fdf84" data-original="#2fdf84" style="" class=""/><path xmlns="http://www.w3.org/2000/svg" d="m29.25 25.75v.5c0 .552-.448 1-1 1h-20.5c-.552 0-1-.448-1-1v-.5c0-.552.448-1 1-1h20.5c.552 0 1 .448 1 1z" fill="#f3f3f1" data-original="#f3f3f1" style="" class=""/><path xmlns="http://www.w3.org/2000/svg" d="m9 26.25v-.5c0-.552.448-1 1-1h-2.25c-.552 0-1 .448-1 1v.5c0 .552.448 1 1 1h2.25c-.552 0-1-.448-1-1z" fill="#d5dbe1" data-original="#d5dbe1" style=""/><path xmlns="http://www.w3.org/2000/svg" d="m18.5 9.25c0-.276.224-.5.5-.5h-2.25c-.276 0-.5.224-.5.5v6.5h2.25z" fill="#00b871" data-original="#00b871" style="" class=""/><path xmlns="http://www.w3.org/2000/svg" d="m15 15.75h-2.25l5.25 5.5 1.125-1.179z" fill="#00b871" data-original="#00b871" style="" class=""/><path xmlns="http://www.w3.org/2000/svg" d="m18 22c-.205 0-.401-.084-.542-.232l-5.25-5.5c-.208-.217-.265-.537-.147-.813s.389-.455.689-.455h2.75v-5.75c0-.689.561-1.25 1.25-1.25h2.5c.689 0 1.25.561 1.25 1.25v5.75h2.75c.3 0 .571.179.689.455s.061.596-.147.813l-5.25 5.5c-.141.148-.337.232-.542.232zm-3.497-5.5 3.497 3.664 3.497-3.664h-1.747c-.414 0-.75-.336-.75-.75v-6.25h-2v6.25c0 .414-.336.75-.75.75z" fill="#000000" data-original="#000000" style="" class=""/><path xmlns="http://www.w3.org/2000/svg" d="m28.25 28h-20.5c-.965 0-1.75-.785-1.75-1.75v-.5c0-.965.785-1.75 1.75-1.75h20.5c.965 0 1.75.785 1.75 1.75v.5c0 .965-.785 1.75-1.75 1.75zm-20.5-2.5c-.138 0-.25.112-.25.25v.5c0 .138.112.25.25.25h20.5c.138 0 .25-.112.25-.25v-.5c0-.138-.112-.25-.25-.25z" fill="#000000" data-original="#000000" style="" class=""/></g></svg>
