<?xml version="1.0"?>
<svg xmlns="http://www.w3.org/2000/svg" xmlns:xlink="http://www.w3.org/1999/xlink" xmlns:svgjs="http://svgjs.com/svgjs" version="1.1" width="512" height="512" x="0" y="0" viewBox="0 0 512 512" style="enable-background:new 0 0 512 512" xml:space="preserve" class=""><g>
<linearGradient xmlns="http://www.w3.org/2000/svg" id="SVGID_1_" gradientUnits="userSpaceOnUse" x1="0" y1="258" x2="512" y2="258" gradientTransform="matrix(1 0 0 -1 0 514)">
	<stop offset="0" style="stop-color:#00F2FE"/>
	<stop offset="0.021" style="stop-color:#03EFFE"/>
	<stop offset="0.293" style="stop-color:#24D2FE"/>
	<stop offset="0.554" style="stop-color:#3CBDFE"/>
	<stop offset="0.796" style="stop-color:#4AB0FE"/>
	<stop offset="1" style="stop-color:#4FACFE"/>
</linearGradient>
<path xmlns="http://www.w3.org/2000/svg" style="fill:url(#SVGID_1_);" d="M432,512H80c-44.112,0-80-35.888-80-80c0-11.046,8.954-20,20-20s20,8.954,20,20  c0,22.056,17.944,40,40,40h352c22.056,0,40-17.944,40-40c0-11.046,8.954-20,20-20s20,8.954,20,20C512,476.112,476.112,512,432,512z   M297.398,367.454L408.114,257.17c7.826-7.795,7.851-20.458,0.056-28.284c-7.795-7.825-20.458-7.851-28.284-0.056L269.142,339.142  c-3.778,3.777-8.8,5.858-14.142,5.858c-5.323,0-10.329-2.065-14.102-5.817L132.243,228.959c-7.754-7.867-20.418-7.957-28.284-0.203  s-7.957,20.417-0.203,28.284l108.716,110.284c0.034,0.034,0.067,0.068,0.101,0.102c11.701,11.701,27.069,17.549,42.437,17.549  C270.366,384.975,285.72,379.133,297.398,367.454z M276,265V20c0-11.046-8.954-20-20-20s-20,8.954-20,20v245  c0,11.046,8.954,20,20,20C267.046,285,276,276.046,276,265z" fill=""/>
<g xmlns="http://www.w3.org/2000/svg">
</g>
<g xmlns="http://www.w3.org/2000/svg">
</g>
<g xmlns="http://www.w3.org/2000/svg">
</g>
<g xmlns="http://www.w3.org/2000/svg">
</g>
<g xmlns="http://www.w3.org/2000/svg">
</g>
<g xmlns="http://www.w3.org/2000/svg">
</g>
<g xmlns="http://www.w3.org/2000/svg">
</g>
<g xmlns="http://www.w3.org/2000/svg">
</g>
<g xmlns="http://www.w3.org/2000/svg">
</g>
<g xmlns="http://www.w3.org/2000/svg">
</g>
<g xmlns="http://www.w3.org/2000/svg">
</g>
<g xmlns="http://www.w3.org/2000/svg">
</g>
<g xmlns="http://www.w3.org/2000/svg">
</g>
<g xmlns="http://www.w3.org/2000/svg">
</g>
<g xmlns="http://www.w3.org/2000/svg">
</g>
</g></svg>
