<?xml version="1.0"?>
<svg xmlns="http://www.w3.org/2000/svg" xmlns:xlink="http://www.w3.org/1999/xlink" xmlns:svgjs="http://svgjs.com/svgjs" version="1.1" width="512" height="512" x="0" y="0" viewBox="0 0 512 512" style="enable-background:new 0 0 512 512" xml:space="preserve"><g>
<linearGradient xmlns="http://www.w3.org/2000/svg" id="SVGID_1_" gradientUnits="userSpaceOnUse" x1="9.5" y1="258" x2="502.5" y2="258" gradientTransform="matrix(1 0 0 -1 0 514)">
	<stop offset="0" style="stop-color:#00F2FE"/>
	<stop offset="0.021" style="stop-color:#03EFFE"/>
	<stop offset="0.293" style="stop-color:#24D2FE"/>
	<stop offset="0.554" style="stop-color:#3CBDFE"/>
	<stop offset="0.796" style="stop-color:#4AB0FE"/>
	<stop offset="1" style="stop-color:#4FACFE"/>
</linearGradient>
<path xmlns="http://www.w3.org/2000/svg" style="fill:url(#SVGID_1_);" d="M124.5,512h-35c-44.112,0-80-35.888-80-80V80c0-44.112,35.888-80,80-80h35  c44.112,0,80,35.888,80,80v352C204.5,476.112,168.612,512,124.5,512z M89.5,40c-22.056,0-40,17.944-40,40v352  c0,22.056,17.944,40,40,40h35c22.056,0,40-17.944,40-40V80c0-22.056-17.944-40-40-40H89.5z M502.5,432c0-11.046-8.954-20-20-20  s-20,8.954-20,20c0,22.056-17.944,40-40,40h-34c-22.056,0-40-17.944-40-40V80c0-22.056,17.944-40,40-40h34c22.056,0,40,17.944,40,40  v252c0,11.046,8.954,20,20,20s20-8.954,20-20V80c0-44.112-35.888-80-80-80h-34c-44.112,0-80,35.888-80,80v352  c0,44.112,35.888,80,80,80h34C466.612,512,502.5,476.112,502.5,432z" fill=""/>
<g xmlns="http://www.w3.org/2000/svg">
</g>
<g xmlns="http://www.w3.org/2000/svg">
</g>
<g xmlns="http://www.w3.org/2000/svg">
</g>
<g xmlns="http://www.w3.org/2000/svg">
</g>
<g xmlns="http://www.w3.org/2000/svg">
</g>
<g xmlns="http://www.w3.org/2000/svg">
</g>
<g xmlns="http://www.w3.org/2000/svg">
</g>
<g xmlns="http://www.w3.org/2000/svg">
</g>
<g xmlns="http://www.w3.org/2000/svg">
</g>
<g xmlns="http://www.w3.org/2000/svg">
</g>
<g xmlns="http://www.w3.org/2000/svg">
</g>
<g xmlns="http://www.w3.org/2000/svg">
</g>
<g xmlns="http://www.w3.org/2000/svg">
</g>
<g xmlns="http://www.w3.org/2000/svg">
</g>
<g xmlns="http://www.w3.org/2000/svg">
</g>
</g></svg>
