<?xml version="1.0"?>
<svg xmlns="http://www.w3.org/2000/svg" xmlns:xlink="http://www.w3.org/1999/xlink" xmlns:svgjs="http://svgjs.com/svgjs" version="1.1" width="512" height="512" x="0" y="0" viewBox="0 0 512 512" style="enable-background:new 0 0 512 512" xml:space="preserve" class=""><g>
<linearGradient xmlns="http://www.w3.org/2000/svg" id="SVGID_1_" gradientUnits="userSpaceOnUse" x1="0.1228" y1="257.8415" x2="512.1229" y2="257.8415" gradientTransform="matrix(0.9996 0 0 -0.9996 -0.0197 513.738)">
	<stop offset="0" style="stop-color:#00F2FE"/>
	<stop offset="0.021" style="stop-color:#03EFFE"/>
	<stop offset="0.293" style="stop-color:#24D2FE"/>
	<stop offset="0.554" style="stop-color:#3CBDFE"/>
	<stop offset="0.796" style="stop-color:#4AB0FE"/>
	<stop offset="1" style="stop-color:#4FACFE"/>
</linearGradient>
<path xmlns="http://www.w3.org/2000/svg" style="fill:url(#SVGID_1_);" d="M398.926,323.939c-3.224,0-6.492-0.781-9.524-2.428c-9.702-5.27-13.296-17.408-8.026-27.11  l0.49-0.898c4.014-7.364,10.081-18.492,10.081-37.536c0-19.785-6.253-30.819-10.392-38.119c-5.444-9.606-2.07-21.806,7.535-27.251  c9.607-5.445,21.805-2.07,27.251,7.535c5.06,8.928,15.59,27.507,15.59,57.835c0,29.236-9.732,47.085-14.96,56.675l-0.459,0.842  C412.888,320.155,406.017,323.939,398.926,323.939z M445.999,98.339c-7.845-7.77-20.504-7.71-28.273,0.135  c-7.77,7.845-7.71,20.503,0.135,28.273c34.857,34.526,54.053,80.389,54.053,129.139c0,48.85-19.196,94.768-54.053,129.294  c-7.845,7.77-7.905,20.429-0.135,28.273c3.909,3.947,9.055,5.923,14.204,5.923c5.084,0,10.171-1.928,14.068-5.789  c42.496-42.092,65.898-98.099,65.898-157.702C511.897,196.382,488.495,140.431,445.999,98.339z M295.166,4.873  c-22.701-9.572-47.762-4.833-65.401,12.367c-0.415,0.405-0.812,0.827-1.19,1.266l-113.27,131.498H80.071  c-44.094,0-79.968,35.874-79.968,79.968v51.979c0,44.094,35.874,79.968,79.968,79.968h35.235l113.27,131.498  c0.378,0.439,0.775,0.862,1.19,1.266c11.658,11.367,26.532,17.317,41.826,17.316c7.932,0,15.978-1.601,23.743-4.875  c22.596-9.527,36.633-30.695,36.633-55.242c0-11.042-8.95-19.992-19.992-19.992c-11.042,0-19.992,8.95-19.992,19.992  c0,12.306-9.325,17.194-12.183,18.399c-2.855,1.204-12.716,4.422-21.584-3.716L139.618,328.881  c-3.797-4.409-9.328-6.944-15.147-6.944h-44.4c-22.047,0-39.984-17.937-39.984-39.984v-51.979c0-22.047,17.937-39.984,39.984-39.984  h44.4c5.819,0,11.349-2.536,15.147-6.944L258.216,45.361c8.772-8.045,18.576-4.84,21.415-3.644  c2.898,1.222,12.353,6.176,12.353,18.616v291.592c0,11.042,8.95,19.992,19.992,19.992c11.042,0,19.992-8.95,19.992-19.992V60.332  C331.97,35.695,317.867,14.444,295.166,4.873z" fill=""/>
<g xmlns="http://www.w3.org/2000/svg">
</g>
<g xmlns="http://www.w3.org/2000/svg">
</g>
<g xmlns="http://www.w3.org/2000/svg">
</g>
<g xmlns="http://www.w3.org/2000/svg">
</g>
<g xmlns="http://www.w3.org/2000/svg">
</g>
<g xmlns="http://www.w3.org/2000/svg">
</g>
<g xmlns="http://www.w3.org/2000/svg">
</g>
<g xmlns="http://www.w3.org/2000/svg">
</g>
<g xmlns="http://www.w3.org/2000/svg">
</g>
<g xmlns="http://www.w3.org/2000/svg">
</g>
<g xmlns="http://www.w3.org/2000/svg">
</g>
<g xmlns="http://www.w3.org/2000/svg">
</g>
<g xmlns="http://www.w3.org/2000/svg">
</g>
<g xmlns="http://www.w3.org/2000/svg">
</g>
<g xmlns="http://www.w3.org/2000/svg">
</g>
</g></svg>
